<?xml version="1.0" encoding="utf-8"?>
<!-- Generator: Adobe Illustrator 27.5.0, SVG Export Plug-In . SVG Version: 6.00 Build 0)  -->
<svg version="1.1" xmlns="http://www.w3.org/2000/svg" xmlns:xlink="http://www.w3.org/1999/xlink" x="0px" y="0px"
	 viewBox="0 0 500 500" style="enable-background:new 0 0 500 500;" xml:space="preserve">
<g id="BACKGROUND">
	<rect style="fill:#211436;" width="500" height="500"/>
</g>
<g id="OBJECTS">
	<g>
		<g>
			<g>
				<linearGradient id="SVGID_1_" gradientUnits="userSpaceOnUse" x1="345.661" y1="236.0144" x2="200.6677" y2="178.5117">
					<stop  offset="0" style="stop-color:#FFC303"/>
					<stop  offset="0.167" style="stop-color:#FF5637"/>
					<stop  offset="0.3754" style="stop-color:#E62D70"/>
					<stop  offset="0.5496" style="stop-color:#984FC2"/>
					<stop  offset="0.7712" style="stop-color:#5783FD"/>
					<stop  offset="0.8175" style="stop-color:#4C92F5"/>
					<stop  offset="0.9062" style="stop-color:#2EB9DF"/>
					<stop  offset="1" style="stop-color:#09E8C4"/>
				</linearGradient>
				<path style="fill:url(#SVGID_1_);" d="M163.708,275.506c2.778,3.115,6.766,4.901,10.944,4.901h49.799l19.381,25.388
					c1.479,1.938,3.727,3.049,6.168,3.049c0,0,0,0,0,0c2.441,0,4.689-1.111,6.169-3.049l19.38-25.388h49.8
					c4.177,0,8.166-1.786,10.943-4.9c2.778-3.114,4.093-7.276,3.61-11.417l-16.588-141.998c-0.711-6.085-5.101-10.925-10.792-12.432
					l-7.155,8.399h3.394c2.912,0,5.362,2.177,5.699,5.063l16.588,141.998c0.192,1.646-0.31,3.233-1.414,4.471
					c-1.104,1.238-2.626,1.919-4.285,1.919h-52.007c-1.391,0-2.702,0.648-3.545,1.753L250,299.195l-19.796-25.933
					c-0.843-1.104-2.155-1.753-3.545-1.753h-52.007c-10.789,0-14.553-7.42-14.553-7.42
					C159.615,268.231,160.93,272.391,163.708,275.506z"/>
				<path style="opacity:0.5;fill:#984FC2;" d="M339.902,264.09l-0.68-3.484c0.483,4.141-0.832,8.303-3.61,11.417
					c-2.777,3.114-6.766,4.9-10.943,4.9h-49.799l-20.335,25.388c-1.48,1.938-3.188,3.049-4.534,3.049
					c-1.346,0-3.46-1.111-4.939-3.049l-19.381-25.388h-51.709c-4.177,0-8.166-1.786-10.944-4.901
					c-1.355-1.519-2.355-3.289-2.975-5.181c0.233,3.187,1.495,6.243,3.655,8.666c2.778,3.115,6.766,4.901,10.944,4.901h49.799
					l19.381,25.388c1.479,1.938,3.727,3.049,6.168,3.049c0,0,0,0,0.001,0c2.441,0,4.689-1.111,6.169-3.049l19.38-25.388h49.8
					c4.177,0,8.166-1.786,10.943-4.9C339.07,272.392,340.385,268.231,339.902,264.09z"/>
				<path style="opacity:0.5;fill:#984FC2;" d="M312.521,109.659l-6.037,7.087c0.347,0.471,0.706,0.91,1.063,1.312h1.213
					c2.416,0,4.51,1.501,5.347,3.66c4.095,0.047,7.609,3.158,10.032,7.446l-0.826-7.072
					C322.603,116.007,318.213,111.167,312.521,109.659z"/>
			</g>
			<g>
				
					<linearGradient id="SVGID_00000067930081084599763240000001009127599718403750_" gradientUnits="userSpaceOnUse" x1="165.1934" y1="136.0489" x2="289.4613" y2="225.0766">
					<stop  offset="0" style="stop-color:#FFC303"/>
					<stop  offset="0.167" style="stop-color:#FF5637"/>
					<stop  offset="0.3754" style="stop-color:#E62D70"/>
					<stop  offset="0.5496" style="stop-color:#984FC2"/>
					<stop  offset="0.7712" style="stop-color:#5783FD"/>
					<stop  offset="0.8175" style="stop-color:#4C92F5"/>
					<stop  offset="0.9062" style="stop-color:#2EB9DF"/>
					<stop  offset="1" style="stop-color:#09E8C4"/>
				</linearGradient>
				<path style="fill:url(#SVGID_00000067930081084599763240000001009127599718403750_);" d="M323.314,122.091
					c-0.861-7.371-7.117-12.93-14.553-12.93H191.239c-7.436,0-13.692,5.559-14.553,12.93L160.098,264.09c0,0,3.764,7.42,14.553,7.42
					c-1.66,0-3.182-0.682-4.286-1.919c-1.104-1.238-1.606-2.825-1.414-4.471l16.588-141.998c0.337-2.887,2.788-5.063,5.7-5.063
					h105.699h11.823c3.483,0,12.608,0.644,15.379,11.106L323.314,122.091z"/>
				<path style="opacity:0.4;fill:#FFFFFF;" d="M178.3,124.508c0.861-7.371,7.117-12.93,14.553-12.93h117.522
					c4.549,0,8.65,2.087,11.35,5.391c-2.47-4.677-7.385-7.808-12.965-7.808H191.239c-7.436,0-13.692,5.559-14.553,12.93
					L160.098,264.09c0,0,0.501,0.974,1.638,2.211L178.3,124.508z"/>
				<path style="opacity:0.5;fill:#984FC2;" d="M169.57,268.415c-5.582,0.242-9.472-4.325-9.472-4.325s3.764,7.42,14.553,7.42
					c-1.66,0-3.182-0.682-4.286-1.919C170.042,269.228,169.788,268.829,169.57,268.415z"/>
				<g style="opacity:0.5;">
					<rect x="217.192" y="109.161" style="fill:#984FC2;" width="12.732" height="8.897"/>
					<rect x="270.076" y="109.161" style="fill:#984FC2;" width="12.732" height="8.897"/>
				</g>
			</g>
		</g>
		<g>
			
				<linearGradient id="SVGID_00000168110231107440884730000018075691327911640237_" gradientUnits="userSpaceOnUse" x1="250" y1="65.9234" x2="250" y2="170.2449">
				<stop  offset="0" style="stop-color:#FFC303"/>
				<stop  offset="0.167" style="stop-color:#FF5637"/>
				<stop  offset="0.3754" style="stop-color:#E62D70"/>
				<stop  offset="0.5496" style="stop-color:#984FC2"/>
				<stop  offset="0.7712" style="stop-color:#5783FD"/>
				<stop  offset="0.8175" style="stop-color:#4C92F5"/>
				<stop  offset="0.9062" style="stop-color:#2EB9DF"/>
				<stop  offset="1" style="stop-color:#09E8C4"/>
			</linearGradient>
			<path style="fill:url(#SVGID_00000168110231107440884730000018075691327911640237_);" d="M276.442,137.007
				c-2.461,0-4.457-1.992-4.457-4.448V96.683c0-12.099-9.862-21.942-21.985-21.942s-21.984,9.843-21.984,21.942v35.876
				c0,2.457-1.995,4.448-4.457,4.448c-2.461,0-4.457-1.992-4.457-4.448V96.683c0-17.005,13.861-30.839,30.898-30.839
				s30.899,13.834,30.899,30.839v35.876C280.898,135.016,278.903,137.007,276.442,137.007z"/>
			<path style="opacity:0.4;fill:#FFFFFF;" d="M250,65.844c-17.037,0-30.898,13.834-30.898,30.839v35.876
				c0,1.857,1.142,3.445,2.762,4.111V97.107c0-15.485,12.622-28.082,28.136-28.082s28.137,12.597,28.137,28.082v39.563
				c1.62-0.666,2.762-2.254,2.762-4.111V96.683C280.898,79.678,267.037,65.844,250,65.844z"/>
		</g>
		<g>
			
				<linearGradient id="SVGID_00000125576468120369638150000011519516610090789290_" gradientUnits="userSpaceOnUse" x1="250" y1="172.3575" x2="250" y2="234.3245">
				<stop  offset="0" style="stop-color:#FFFFFF"/>
				<stop  offset="0.5207" style="stop-color:#DDF3FF"/>
				<stop  offset="1" style="stop-color:#559ECA"/>
			</linearGradient>
			<path style="fill:url(#SVGID_00000125576468120369638150000011519516610090789290_);" d="M283.829,178.78
				c-4.16-4.76-9.901-7.557-16.165-7.874c-8.726-0.456-14.595,6.828-17.665,10.012c-3.069-3.184-8.938-10.468-17.664-10.012
				c-6.263,0.317-12.005,3.114-16.164,7.874c-4.604,5.268-6.113,12.389-6.113,20.129c0,19.322,32.062,40.648,39.942,40.648
				s39.942-21.326,39.942-40.648C289.942,191.169,288.433,184.048,283.829,178.78z"/>
			<path style="opacity:0.5;fill:#559ECA;" d="M250,235.167c-7.678,0-38.299-20.245-39.866-39.156
				c-0.051,0.955-0.076,1.922-0.076,2.899c0,19.322,32.062,40.648,39.942,40.648s39.942-21.326,39.942-40.648
				c0-0.977-0.025-1.944-0.076-2.899C288.299,214.922,257.677,235.167,250,235.167z"/>
		</g>
	</g>
</g>
<g id="TEXTS">
	<g>
		<text transform="matrix(1 0 0 1 81.1272 392.1103)"><tspan x="0" y="0" style="fill:#FFFFFF; font-family:'Poppins-ExtraBold'; font-size:35px; letter-spacing:4;">ILOVE</tspan><tspan x="125.334" y="0" style="fill:#FFFFFF; font-family:'Poppins-Regular'; font-size:35px; letter-spacing:4;">SHOPPING</tspan></text>
	</g>
	<g>
		
			<text transform="matrix(1 0 0 1 146.4968 424.2627)" style="fill:#984FC2; font-family:'Poppins-Medium'; font-size:17px; letter-spacing:2;">your online store</text>
	</g>
</g>
</svg>
